# xmcd
#
# Track frame offsets:
#	150
#	11532
#	26105
#	36807
#	48295
#	61005
#	73897
#	86197
#	96145
#	108592
#	120522
#	131897
#	142752
#	154875
#	167442
#	181395
#	191892
#	202320
#	215540
#
# Disc length: 3046 seconds
#
# Revision: 1
# Processed by: cddbd v1.5.1PL0 Copyright (c) Steve Scherf et al.
# Submitted via: EasyCDDAExtractor 7.0.6.1
#
DISCID=160be413
DTITLE=Various Artist - Down The trail Of Achin' Hearts Joan Ridgway-Jacqueli
DTITLE=ne Hall-Lily Connors
DYEAR=1900
DGENRE=Country
TTITLE0=Joan Ridgway - Down The Trail of Achin' Hearts
TTITLE1=Jacqueline Hall - My Little Green Valley
TTITLE2=Joan Ridgway - Memories Of You
TTITLE3=Lily Connors - Lonely And Blue
TTITLE4=Lily Connors - Between Two Trees
TTITLE5=Lily Connors - Lonesome So Lonesome
TTITLE6=Lily Connors - Lonesome Whistle
TTITLE7=Jacqueline Hall - Sarabelle
TTITLE8=Lily Connors - Cuddles And Kisses
TTITLE9=Jacqueline Hall - Kim
TTITLE10=Lily Connors - Fickle Fingers
TTITLE11=Joan Ridgway - Cuckoo Yodel
TTITLE12=Joan Ridgway - Forever You'll Live In My Heart
TTITLE13=Jacqueline Hall - Little Girl's Plea
TTITLE14=Jacqueline Hall - Mother
TTITLE15=Lily Connors - When Things Go Wrong
TTITLE16=Lily Connors - Chime Bells
TTITLE17=Joan Ridgway - The Rocky Rodeo
TTITLE18=Jacqueline Hall - The South Coast Flyer
EXTD=
EXTT0=
EXTT1=
EXTT2=
EXTT3=
EXTT4=
EXTT5=
EXTT6=
EXTT7=
EXTT8=
EXTT9=
EXTT10=
EXTT11=
EXTT12=
EXTT13=
EXTT14=
EXTT15=
EXTT16=
EXTT17=
EXTT18=
PLAYORDER=
